<svg width="683" height="184" viewBox="0 0 683 184" fill="none" xmlns="http://www.w3.org/2000/svg">
<path d="M662 46.5H681V64.5L670.172 54.2416L662 46.5Z" fill="black"/>
<path d="M2 136C7.6 150.8 32.3333 168.167 44 175L73.5 182.5H179.5L191 177.5L201.5 166.5L246 132L298 101.5L382.5 46.5L425.5 16.5C436.833 9.16665 463.8 -3.30002 481 5.49998C498.2 14.3 562.167 52.1667 592 70C601.167 78.6667 622.3 93.4 633.5 83C644.7 72.6 669.833 54.3333 681 46.5M681 46.5H662L681 64.5V46.5Z" stroke="black" stroke-width="3"/>
</svg>
